<?xml version="1.0" encoding="UTF-8" standalone="no"?>
<svg
   xmlns:dc="http://purl.org/dc/elements/1.1/"
   xmlns:cc="http://creativecommons.org/ns#"
   xmlns:rdf="http://www.w3.org/1999/02/22-rdf-syntax-ns#"
   xmlns:svg="http://www.w3.org/2000/svg"
   xmlns="http://www.w3.org/2000/svg"
   xmlns:sodipodi="http://sodipodi.sourceforge.net/DTD/sodipodi-0.dtd"
   xmlns:inkscape="http://www.inkscape.org/namespaces/inkscape"
   inkscape:version="1.0 (4035a4f, 2020-05-01)"
   sodipodi:docname="7j-baccarat-india.svg"
   xml:space="preserve"
   style="enable-background:new 0 0 512.001 512.001;"
   viewBox="0 0 512.001 512.001"
   y="0px"
   x="0px"
   id="Capa_1"
   version="1.1"><metadata
   id="metadata2241"><rdf:RDF><cc:Work
       rdf:about=""><dc:format>image/svg+xml</dc:format><dc:type
         rdf:resource="http://purl.org/dc/dcmitype/StillImage" /><dc:title></dc:title></cc:Work></rdf:RDF></metadata><defs
   id="defs2239" /><sodipodi:namedview
   inkscape:current-layer="Capa_1"
   inkscape:window-maximized="0"
   inkscape:window-y="25"
   inkscape:window-x="-1"
   inkscape:cy="242.62733"
   inkscape:cx="250.26914"
   inkscape:zoom="1.5703095"
   showgrid="false"
   id="namedview2237"
   inkscape:window-height="942"
   inkscape:window-width="1680"
   inkscape:pageshadow="2"
   inkscape:pageopacity="0"
   guidetolerance="10"
   gridtolerance="10"
   objecttolerance="10"
   borderopacity="1"
   bordercolor="#666666"
   pagecolor="#ffffff"
   inkscape:document-rotation="0" />
<circle
   id="circle2168"
   r="256"
   cy="256"
   cx="256"
   style="fill:#2fad4f;fill-opacity:1" />































<path
   style="stroke-width:0.824219"
   d="M 430.61253,464.079 H 79.935473 C 60.239942,464.079 44.274,448.11306 44.274,428.41753 V 77.740479 C 44.274,58.04494 60.239942,42.079 79.935473,42.079 H 430.61253 c 19.69553,0 35.66147,15.96594 35.66147,35.661479 V 428.41753 c 0,19.69553 -15.96594,35.66147 -35.66147,35.66147 z"
   fill="#d97643"
   id="path3646" /><path
   style="stroke-width:0.824219"
   d="m 430.6117,42.079 h -25.47247 c 19.69553,0 35.6623,15.96594 35.6623,35.660649 V 428.41835 c 0,19.69471 -15.96595,35.66065 -35.6623,35.66065 h 25.47247 c 19.69636,0 35.6623,-15.96594 35.6623,-35.66065 V 77.739649 C 466.274,58.04494 450.30806,42.079 430.6117,42.079 Z"
   fill="#ca6738"
   id="path3648" /><path
   style="stroke-width:0.824219"
   d="M 69.74648,428.41835 V 77.739649 c 0,-5.62694 4.562052,-10.188995 10.188993,-10.188995 H 430.6117 c 5.62695,0 10.189,4.562055 10.189,10.188995 V 428.41835 c 0,5.62694 -4.56205,10.189 -10.189,10.189 H 79.935473 c -5.626941,0 -10.188993,-4.56206 -10.188993,-10.189 z"
   fill="#40a33f"
   id="path3650" /><path
   style="stroke-width:0.824219"
   d="m 430.6117,67.550654 h -25.47247 c 5.61869,0 10.18898,4.57112 10.18898,10.188995 V 428.41835 c 0,5.61788 -4.57029,10.189 -10.18898,10.189 h 25.47247 c 5.61871,0 10.189,-4.57112 10.189,-10.189 V 77.739649 c 8.3e-4,-5.617875 -4.57029,-10.188995 -10.189,-10.188995 z"
   fill="#379237"
   id="path3652" /><g
   transform="matrix(0.82421876,0,0,0.82421876,44.274,42.079)"
   fill="#f1f1f1"
   id="g3666"><path
     d="m 181.009,84.978 c -0.025,-0.069 -0.053,-0.137 -0.08,-0.205 -1.361,-3.309 -4.552,-5.445 -8.129,-5.445 h -0.008 c -3.581,0.003 -6.771,2.146 -8.127,5.46 -0.023,0.057 -0.046,0.114 -0.067,0.171 l -21.359,56.083 c -1.475,3.871 0.469,8.204 4.34,9.678 3.866,1.475 8.203,-0.468 9.678,-4.339 l 3.48,-9.137 h 23.966 l 3.44,9.116 c 1.468,3.894 5.806,5.825 9.665,4.369 3.875,-1.463 5.831,-5.79 4.368,-9.665 z m -14.56,37.265 6.325,-16.606 6.267,16.606 z"
     id="path3654" /><path
     d="m 256.775,79.327 c -0.025,0 -0.05,0 -0.074,0 -4.143,0.04 -7.468,3.43 -7.428,7.572 l 0.323,33.395 -25.98,-37.622 c -1.864,-2.701 -5.268,-3.874 -8.404,-2.898 -3.133,0.977 -5.268,3.878 -5.268,7.16 v 56.777 c 0,4.142 3.357,7.5 7.5,7.5 4.143,0 7.5,-3.358 7.5,-7.5 v -32.718 l 24.722,35.798 c 2.189,3.16 5.843,4.5 9.315,3.418 3.537,-1.105 5.823,-4.409 5.823,-8.487 l -0.531,-54.967 c -0.04,-4.118 -3.389,-7.428 -7.498,-7.428 z"
     id="path3656" /><path
     d="m 294.162,114.13 22.915,-21.064 c 3.05,-2.803 3.25,-7.547 0.446,-10.597 -2.803,-3.049 -7.548,-3.249 -10.597,-0.446 L 288.902,98.591 V 86.827 c 0,-4.142 -3.357,-7.5 -7.5,-7.5 -4.143,0 -7.5,3.358 -7.5,7.5 v 56.884 c 0,4.142 3.357,7.5 7.5,7.5 4.143,0 7.5,-3.358 7.5,-7.5 v -13.813 l 19.912,19.211 c 2.971,2.867 7.72,2.8 10.604,-0.19 2.876,-2.981 2.791,-7.729 -0.19,-10.605 z"
     id="path3658" /><path
     d="m 360.06,94.846 c 4.143,0 7.5,-3.358 7.5,-7.5 0,-4.142 -3.357,-7.5 -7.5,-7.5 h -23.75 c -4.143,0 -7.5,3.358 -7.5,7.5 v 56.364 c 0,4.142 3.357,7.5 7.5,7.5 h 23.75 c 4.143,0 7.5,-3.358 7.5,-7.5 0,-4.142 -3.357,-7.5 -7.5,-7.5 h -16.25 v -13.182 h 14.498 c 4.143,0 7.5,-3.358 7.5,-7.5 0,-4.142 -3.357,-7.5 -7.5,-7.5 H 343.81 V 94.846 Z"
     id="path3660" /><path
     d="m 131.614,110.79 c 1.977,-3.16 3.139,-6.88 3.139,-10.875 0,-11.353 -9.236,-20.589 -20.589,-20.589 H 97.641 c -4.143,0 -7.5,3.358 -7.5,7.5 v 56.884 c 0,4.135 3.355,7.5 7.5,7.5 h 0.033 c 0,0 15.188,-0.068 19.376,-0.068 12.578,0 22.811,-10.233 22.811,-22.811 -10e-4,-7.045 -3.212,-13.353 -8.247,-17.541 z m -17.45,-16.463 c 3.082,0 5.589,2.507 5.589,5.589 0,3.082 -2.507,5.589 -5.589,5.589 -1.21,0 -3.489,0.006 -5.972,0.015 h -3.051 V 94.327 Z m 2.886,41.816 c -2.2,0 -7.428,0.019 -11.909,0.037 v -15.648 c 1.032,-0.004 2.085,-0.008 3.105,-0.011 h 8.804 c 4.307,0 7.811,3.504 7.811,7.812 0,4.308 -3.505,7.81 -7.811,7.81 z"
     id="path3662" /><path
     d="m 405.932,122.784 c 9.236,-2.922 15.927,-11.307 15.927,-21.173 0,-12.287 -10.372,-22.284 -23.12,-22.284 h -15.115 c -0.003,0 -0.006,0 -0.009,0 -0.003,0 -0.006,0 -0.009,0 -4.143,0 -7.5,3.358 -7.5,7.5 v 56.884 c 0,4.142 3.357,7.5 7.5,7.5 4.143,0 7.5,-3.358 7.5,-7.5 v -15.07 l 17.624,20.025 c 2.74,3.113 7.48,3.408 10.585,0.675 3.109,-2.736 3.411,-7.476 0.675,-10.585 z m -7.193,-28.457 c 4.401,0 8.12,3.335 8.12,7.284 0,3.948 -3.719,7.283 -8.12,7.283 -1.774,0 -4.729,0.012 -7.553,0.025 -0.036,-7.293 -0.016,-5.591 -0.04,-14.592 z"
     id="path3664" /></g><path
   style="stroke-width:0.824219"
   d="M 391.9781,190.85708 H 118.56991 c -3.41474,0 -6.18165,2.76772 -6.18165,6.18164 v 76.41827 c 0,3.41391 2.76691,6.18163 6.18165,6.18163 h 273.40901 c 3.41474,0 6.18165,-2.76772 6.18165,-6.18163 v -76.41827 c -8.3e-4,-3.41392 -2.76773,-6.18164 -6.18247,-6.18164 z m -6.18164,76.41827 H 124.75154 v -64.05498 h 261.04575 v 64.05498 z"
   fill="#dfdfdf"
   id="path3668" /><circle
   style="stroke-width:0.824219"
   cx="309.61636"
   cy="325.54681"
   fill="#f1f1f1"
   r="76.418266"
   id="circle3670" /><path
   style="stroke-width:0.824219"
   d="m 386.03466,325.54679 c 0,7.37016 -1.04428,14.49388 -2.98862,21.22775 h -52.20272 v 52.20272 c -6.73304,1.94433 -13.85759,2.98862 -21.22776,2.98862 -7.37015,0 -14.49388,-1.04429 -21.22774,-2.98862 V 346.77454 H 236.1851 c -1.94434,-6.73304 -2.98862,-13.85759 -2.98862,-21.22775 0,-7.37016 1.04428,-14.49389 2.98862,-21.22776 h 52.20272 v -52.20271 c 6.73304,-1.94434 13.85759,-2.98862 21.22774,-2.98862 7.37017,0 14.49389,1.04428 21.22776,2.98862 v 52.20271 h 52.20272 c 1.94434,6.73387 2.98862,13.8576 2.98862,21.22776 z"
   fill="#fece3f"
   id="path3672" /><circle
   style="stroke-width:0.824219"
   cx="309.61636"
   cy="325.54681"
   fill="#dfdfdf"
   r="48.079975"
   id="circle3674" /><path
   style="stroke-width:0.824219"
   d="m 309.61639,277.46681 c -4.41122,0 -8.6782,0.60581 -12.73665,1.71849 20.36974,5.58409 35.34333,24.21885 35.34333,46.36149 0,22.14263 -14.97359,40.7774 -35.34333,46.36148 4.05763,1.1127 8.32543,1.71849 12.73665,1.71849 26.55386,0 48.07915,-21.52612 48.07915,-48.07997 0,-26.55386 -21.52612,-48.07998 -48.07915,-48.07998 z"
   fill="#c9c9c9"
   id="path3676" /><circle
   style="stroke-width:0.824219"
   cx="200.93161"
   cy="325.54681"
   fill="#f1f1f1"
   r="76.418266"
   id="circle3678" /><path
   style="stroke-width:0.824219"
   d="m 277.3507,325.54679 c 0,7.37016 -1.04428,14.49388 -2.98862,21.22775 h -52.20272 v 52.20272 c -6.73304,1.94433 -13.85759,2.98862 -21.22774,2.98862 -7.37017,0 -14.49389,-1.04429 -21.22776,-2.98862 v -52.20272 h -52.20272 c -1.94434,-6.73304 -2.98862,-13.85759 -2.98862,-21.22775 0,-7.37016 1.04428,-14.49389 2.98862,-21.22776 h 52.20272 v -52.20271 c 6.73304,-1.94434 13.85759,-2.98862 21.22776,-2.98862 7.37015,0 14.49388,1.04428 21.22774,2.98862 v 52.20271 h 52.20272 c 1.94434,6.73387 2.98862,13.8576 2.98862,21.22776 z"
   fill="#f44336"
   id="path3680" /><circle
   style="stroke-width:0.824219"
   cx="200.93161"
   cy="325.54681"
   fill="#dfdfdf"
   r="48.079975"
   id="circle3682" /><path
   style="stroke-width:0.824219"
   d="m 200.93162,277.46681 c -4.41123,0 -8.67821,0.60581 -12.73666,1.71849 20.36974,5.58409 35.34332,24.21885 35.34332,46.36149 0,22.14263 -14.97276,40.7774 -35.34332,46.36148 4.05763,1.1127 8.32543,1.71849 12.73666,1.71849 26.55384,0 48.07997,-21.52612 48.07997,-48.07997 0,-26.55386 -21.52613,-48.07998 -48.07997,-48.07998 z"
   fill="#c9c9c9"
   id="path3684" /></svg>
