<?xml version="1.0" encoding="UTF-8" standalone="no"?>
<svg
   xmlns:dc="http://purl.org/dc/elements/1.1/"
   xmlns:cc="http://creativecommons.org/ns#"
   xmlns:rdf="http://www.w3.org/1999/02/22-rdf-syntax-ns#"
   xmlns:svg="http://www.w3.org/2000/svg"
   xmlns="http://www.w3.org/2000/svg"
   xmlns:sodipodi="http://sodipodi.sourceforge.net/DTD/sodipodi-0.dtd"
   xmlns:inkscape="http://www.inkscape.org/namespaces/inkscape"
   inkscape:version="1.0 (4035a4f, 2020-05-01)"
   sodipodi:docname="7j-live-games.svg"
   xml:space="preserve"
   style="enable-background:new 0 0 512.001 512.001;"
   viewBox="0 0 512.001 512.001"
   y="0px"
   x="0px"
   id="Capa_1"
   version="1.1"><metadata
   id="metadata2241"><rdf:RDF><cc:Work
       rdf:about=""><dc:format>image/svg+xml</dc:format><dc:type
         rdf:resource="http://purl.org/dc/dcmitype/StillImage" /><dc:title></dc:title></cc:Work></rdf:RDF></metadata><defs
   id="defs2239" /><sodipodi:namedview
   inkscape:current-layer="Capa_1"
   inkscape:window-maximized="1"
   inkscape:window-y="25"
   inkscape:window-x="0"
   inkscape:cy="218.57184"
   inkscape:cx="250.26914"
   inkscape:zoom="1.5703095"
   showgrid="false"
   id="namedview2237"
   inkscape:window-height="942"
   inkscape:window-width="1680"
   inkscape:pageshadow="2"
   inkscape:pageopacity="0"
   guidetolerance="10"
   gridtolerance="10"
   objecttolerance="10"
   borderopacity="1"
   bordercolor="#666666"
   pagecolor="#ffffff"
   inkscape:document-rotation="0" />
<circle
   id="circle2168"
   r="256"
   cy="256"
   cx="256"
   style="fill:#2fad4f;fill-opacity:1" />































<g
   transform="matrix(0.71090047,0,0,0.71090047,76.039479,2.679057)"
   id="g62"><path
     id="path10"
     fill="#6b7680"
     d="m 88.094,491.849 c -3.105,-2.529 -6.08,8.887 -8.914,6.045 C 69.241,487.929 61.09,476.181 55.241,463.164 48.658,448.524 45,432.273 45,415.174 c 0,-17.652 3.899,-34.388 10.894,-49.39 27.18,-58.238 40.274,-121.859 38.27,-186.095 0,-19.093 3.206,-38.196 9.126,-56.433 22.09,-68.11 81.888,-124.24 153.213,-123.243 69.485,0.967 129.906,57.541 152.197,124.725 5.698,17.199 8.904,35.093 9.125,52.927 -0.686,65.026 11.505,129.702 38.602,188.805 3.387,7.416 6.04,15.244 7.829,23.395 1.799,8.151 2.744,16.625 2.744,25.31 0,18.579 -4.322,36.141 -12.02,51.748 -7.457,15.164 -18.11,14.358 -31.075,24.927 H 88.094 Z" /><g
     id="g16"
     fill="#525e66"><path
       id="path12"
       d="m 464.256,389.865 c -1.789,-8.151 -4.442,-15.98 -7.829,-23.395 C 429.33,307.368 417.139,242.691 417.825,177.665 417.604,159.831 414.398,141.937 408.699,124.739 386.409,57.554 325.988,0.98 256.503,0.013 c -8.505,-0.119 -16.843,0.583 -24.976,2.012 0.62,0 1.239,-0.006 1.861,0.003 69.486,0.967 129.906,57.541 152.197,124.725 5.698,17.199 8.904,35.093 9.125,52.926 -0.686,65.026 11.505,129.703 38.602,188.805 3.387,7.415 6.04,15.244 7.829,23.395 1.799,8.151 2.744,16.625 2.744,25.31 0,18.579 -4.322,36.141 -12.02,51.748 -6.947,14.126 -16.668,14.397 -28.446,22.912 h 20.486 c 12.964,-10.569 23.618,-9.763 31.075,-24.927 7.698,-15.607 12.02,-33.169 12.02,-51.748 0,-8.685 -0.945,-17.158 -2.744,-25.309 z" /><path
       id="path14"
       d="m 75.354,493.864 c 1.245,1.372 2.518,2.719 3.826,4.03 1.664,1.668 3.376,-1.577 5.135,-4.03 z" /></g><path
     id="path18"
     fill="#fe99a0"
     d="m 454.99,467.698 v 34.901 c 0,5.192 -4.209,9.401 -9.401,9.401 H 64.401 C 59.209,512 55,507.791 55,502.599 v -35.002 c 0,-1.491 0.08,-2.972 0.241,-4.433 1.698,-16.756 13.055,-31.174 29.256,-36.584 l 92.52,-30.922 18.361,-6.136 c 9.497,-3.174 15.899,-12.081 15.899,-22.106 V 314.52 h 87.435 v 53.36 c 0,10.055 6.432,18.982 15.959,22.136 l 15.648,5.179 11.115,3.677 19.507,6.448 19.809,6.549 20,6.619 24.623,8.151 c 17.437,5.763 29.286,21.944 29.607,40.282 0.01,0.263 0.01,0.515 0.01,0.777 z" /><path
     id="path20"
     fill="#ffcebf"
     d="m 330.32,395.195 c -17.618,23.224 -45.476,38.216 -76.832,38.216 -31.145,0 -58.833,-14.791 -76.471,-37.753 l 18.361,-6.136 c 9.497,-3.174 15.899,-12.081 15.899,-22.106 V 314.52 h 87.435 v 53.36 c 0,10.055 6.432,18.982 15.959,22.136 z" /><g
     id="g28"
     fill="#ffb09e"><path
       id="path22"
       d="m 369.565,230.893 c -8.326,0 -15.075,-6.749 -15.075,-15.075 v -23.25 c 0,-8.326 6.749,-15.075 15.075,-15.075 8.326,0 15.075,6.749 15.075,15.075 v 23.25 c 0,8.326 -6.749,15.075 -15.075,15.075 z" /><path
       id="path24"
       d="m 140.425,230.893 c -8.326,0 -15.075,-6.749 -15.075,-15.075 v -23.25 c 0,-8.326 6.749,-15.075 15.075,-15.075 8.326,0 15.075,6.749 15.075,15.075 v 23.25 c 0,8.326 -6.749,15.075 -15.075,15.075 z" /><path
       id="path26"
       d="m 254.995,323.245 c -15.688,0 -30.522,-3.637 -43.718,-10.126 v 44.322 c 4.754,0.705 9.618,1.068 14.573,1.068 27.477,0 52.351,-11.164 70.35,-29.219 0.854,-0.856 1.688,-1.723 2.513,-2.609 v -13.562 c -13.196,6.489 -28.03,10.126 -43.718,10.126 z" /></g><path
     id="path30"
     fill="#ffcebf"
     d="m 353.988,137.191 c -42.378,0 -79.077,-19.83 -96.95,-54.729 -1.481,-2.891 -5.623,-2.885 -7.104,0.007 -17.52,34.2 -53.126,53.913 -94.434,54.683 v 91.389 c 0,55.089 44.545,99.747 99.495,99.747 54.95,0 99.495,-44.658 99.495,-99.747 v -91.356 c -0.168,0 -0.334,0.006 -0.502,0.006 z" /><path
     id="path32"
     fill="#ffb09e"
     d="m 353.988,137.191 c -42.377,0 -79.076,-19.83 -96.949,-54.727 -1.481,-2.892 -5.624,-2.885 -7.105,0.007 -17.52,34.199 -53.126,53.912 -94.433,54.681 v 15.113 c 32.544,-0.607 61.549,-12.971 80.959,-34.914 9.043,-10.223 24.923,-10.362 33.946,-0.122 20.005,22.702 50.253,35.199 84.08,35.075 l 0.005,-0.005 v -15.113 c -0.169,-0.001 -0.335,0.005 -0.503,0.005 z" /><g
     id="g36"><path
       id="path34"
       fill="#fe99a0"
       d="m 194.189,195.125 c -1.703,0 -3.414,-0.575 -4.824,-1.753 -3.197,-2.673 -3.627,-7.439 -0.961,-10.643 1.987,-2.388 9.411,-10.222 21.529,-10.769 13.97,-0.64 22.614,8.849 24.207,10.756 2.673,3.199 2.254,7.965 -0.937,10.645 -3.191,2.68 -7.946,2.259 -10.618,-0.94 -0.487,-0.582 -4.948,-5.66 -11.973,-5.364 -6.11,0.276 -9.928,4.506 -10.631,5.352 -1.491,1.791 -3.634,2.716 -5.792,2.716 z" /></g><g
     id="g40"><path
       id="path38"
       fill="#fe99a0"
       d="m 281.624,195.125 c -1.703,0 -3.414,-0.575 -4.824,-1.753 -3.197,-2.673 -3.627,-7.439 -0.961,-10.643 1.987,-2.388 9.411,-10.222 21.529,-10.769 13.95,-0.64 22.613,8.849 24.207,10.756 2.673,3.199 2.254,7.965 -0.937,10.645 -3.191,2.68 -7.945,2.259 -10.618,-0.94 -0.487,-0.582 -4.963,-5.66 -11.973,-5.364 -6.11,0.276 -9.928,4.506 -10.631,5.352 -1.491,1.791 -3.634,2.716 -5.792,2.716 z" /></g><g
     id="g44"><path
       id="path42"
       fill="#fe99a0"
       d="m 253.488,280.767 c -20.559,0 -32.801,-14.128 -35.046,-16.961 -2.59,-3.267 -2.048,-8.02 1.211,-10.617 3.258,-2.598 8.001,-2.053 10.59,1.214 0.914,1.151 9.322,11.25 23.245,11.25 13.923,0 22.331,-10.099 23.245,-11.25 2.589,-3.269 7.333,-3.812 10.59,-1.214 3.259,2.597 3.801,7.35 1.211,10.617 -2.246,2.833 -14.487,16.961 -35.046,16.961 z" /></g><ellipse
     id="ellipse46"
     ry="7.5570002"
     rx="7.5380001"
     fill="#fd8087"
     cy="154.319"
     cx="253.48801" /><path
     id="path48"
     fill="#fd8087"
     d="M 380.751,411.87 328.038,512 h -58.832 l 72.229,-113.128 19.507,6.449 z" /><path
     id="path50"
     style="fill:none;stroke:#000000;stroke-width:15;stroke-linecap:round;stroke-linejoin:round;stroke-miterlimit:10"
     d="" /><path
     id="path52"
     style="fill:none;stroke:#000000;stroke-width:15;stroke-linecap:round;stroke-linejoin:round;stroke-miterlimit:10"
     d="" /><path
     id="path54"
     fill="#fee97d"
     d="M 438.669,512 H 296.441 l 64.501,-106.679 39.808,13.169 46.051,79.393 c 3.636,6.266 -0.886,14.117 -8.132,14.117 z" /><path
     id="path56"
     fill="#fedf30"
     d="m 446.801,497.882 -46.051,-79.393 -39.808,-13.169 -8.097,13.392 39.853,13.183 46.051,79.393 c 0.13,0.225 0.227,0.455 0.337,0.683 6.996,-0.298 11.279,-7.945 7.715,-14.089 z" /><path
     id="path58"
     fill="#ade194"
     d="m 454.99,467.7 v 34.899 c 0,5.192 -4.209,9.401 -9.401,9.401 H 344.68 l 48.03,-80.11 8.04,-13.4 24.62,8.15 c 17.44,5.76 29.29,21.94 29.61,40.28 0.01,0.26 0.01,0.52 0.01,0.78 z" /><path
     id="path60"
     fill="#97da7b"
     d="m 454.99,467.7 v 34.899 c 0,5.192 -4.209,9.401 -9.401,9.401 H 436.9 v -34.23 c 0,-0.26 0,-0.51 -0.01,-0.77 -0.32,-18.34 -12.17,-34.52 -29.61,-40.28 l -14.57,-4.83 8.04,-13.4 24.62,8.15 c 17.44,5.76 29.29,21.94 29.61,40.28 0.01,0.26 0.01,0.52 0.01,0.78 z" /></g><g
   transform="matrix(5.8517092,0,0,5.8517092,109.18689,261.11489)"
   id="g325"><g
     id="g85"><g
       enable-background="new"
       id="g83"><g
         id="g75"><g
           id="g73"><path
             d="m 49.49997,24.18854 -0.02184,4.87521 c -0.01003,3.53679 -2.32948,7.06819 -6.96307,9.76093 -9.32725,5.42041 -24.55301,5.42116 -33.94128,8.4e-4 C 3.84942,36.09791 1.48988,32.5094 1.50004,28.92641 L 1.52188,24.0512 c -0.01016,3.58298 2.34938,7.1715 7.07374,9.8991 9.38826,5.42032 24.61403,5.41956 33.94128,-8.4e-4 4.63358,-2.69273 6.95304,-6.22413 6.96307,-9.76092 z"
             fill="#3f434f"
             id="path71" /></g></g><g
         id="g81"><g
           id="g79"><path
             d="m 42.42622,14.29012 c 9.38826,5.42032 9.43792,14.23895 0.11067,19.65936 -9.32725,5.42041 -24.55302,5.42116 -33.94128,8.4e-4 C -0.79265,28.53 -0.84229,19.70999 8.48496,14.28959 c 9.32725,-5.4204 24.553,-5.41979 33.94126,5.3e-4 z"
             fill="#5b5e71"
             id="path77" /></g></g></g></g><g
     id="g91"><g
       id="g89"><path
         d="m 40.96169,15.14209 c 8.58692,4.95766 8.63216,12.99727 0.09987,17.95569 -8.53349,4.95912 -22.41193,4.9585 -30.99885,8.4e-4 C 1.4734,28.13958 1.42696,20.10067 9.96045,15.14155 c 8.53228,-4.95843 22.41192,-4.95851 31.00124,5.4e-4 z"
         fill="#f1c40f"
         id="path87" /></g></g><g
     id="g97"><g
       id="g95"><path
         d="m 40.0562,15.6677 c 8.08485,4.66779 8.12743,12.23636 0.09513,16.90422 -8.03349,4.66856 -21.09994,4.66862 -29.18478,8.4e-4 C 2.8805,27.90426 2.83791,20.3357 10.8714,15.66714 c 8.0323,-4.66786 21.09874,-4.66793 29.1848,5.6e-4 z"
         fill="#bc874d"
         id="path93" /></g></g><g
     id="g103"><g
       id="g101"><path
         d="m 37.67394,17.05236 c 6.75972,3.90273 6.79654,10.2317 0.07958,14.13517 -6.71816,3.90417 -17.64456,3.90353 -24.40428,8e-4 -6.76211,-3.90411 -6.79771,-10.23238 -0.07955,-14.13655 6.71695,-3.90347 17.64214,-3.90352 24.40425,5.8e-4 z"
         fill="#f1c40f"
         id="path99" /></g></g><g
     id="g109"><g
       id="g107"><path
         d="m 33.64138,19.39557 c 4.51854,2.60878 4.54235,6.83971 0.05319,9.44853 -4.49037,2.60951 -11.79468,2.60955 -16.31322,7.7e-4 -4.51972,-2.60946 -4.54353,-6.84039 -0.05317,-9.44991 4.48916,-2.60882 11.79348,-2.60885 16.3132,6.1e-4 z"
         fill="#2ecc71"
         id="path105" /></g></g><g
     id="g115"><g
       id="g113"><path
         d="m 30.56701,21.18195 c 2.8108,1.62282 2.82442,4.25323 0.03188,5.87607 -2.79133,1.62215 -7.33249,1.62285 -10.14329,4e-5 -2.8108,-1.62281 -2.82563,-4.25392 -0.0343,-5.87607 2.79254,-1.62285 7.33491,-1.62285 10.14571,-4e-5 z"
         fill="#f1c40f"
         id="path111" /></g></g><g
     id="g265"><g
       enable-background="new"
       id="g153"><g
         id="g121"><g
           id="g119"><path
             d="m 41.98972,25.08198 c -0.15708,0.94138 -0.55364,1.86951 -1.18983,2.75374 l -4.63296,-1.13576 c 0.45475,-0.63478 0.73129,-1.30023 0.83457,-1.97402 z"
             fill="#e74c3c"
             id="path117" /></g></g><g
         id="g127"><g
           id="g125"><path
             d="m 34.98664,27.9493 c 0.47655,-0.39577 0.87115,-0.81527 1.18028,-1.24935 l 4.63296,1.13574 c -0.46548,0.65082 -1.06223,1.27724 -1.79032,1.86671 z"
             fill="#5b5e71"
             id="path123" /></g></g><g
         id="g133"><g
           id="g131"><path
             d="m 39.00956,29.70243 c -0.5185,0.42018 -1.10087,0.82154 -1.75074,1.19921 -0.53236,0.30938 -1.09256,0.59298 -1.67693,0.85149 L 32.5434,29.42934 c 0.39956,-0.1777 0.78343,-0.37279 1.14914,-0.58531 0.4832,-0.28081 0.91576,-0.58114 1.29412,-0.89471 z"
             fill="#e74c3c"
             id="path129" /></g></g><g
         id="g139"><g
           id="g137"><path
             d="m 30.41115,30.17907 c 0.74591,-0.20137 1.46144,-0.45084 2.13224,-0.74974 l 3.03852,2.32378 c -1.00442,0.44525 -2.07536,0.81316 -3.19364,1.10513 z"
             fill="#5b5e71"
             id="path135" /></g></g><g
         id="g145"><g
           id="g143"><path
             d="m 30.41115,30.17908 1.97711,2.67917 c -1.5291,0.40205 -3.13959,0.66127 -4.77977,0.77834 l -0.62974,-2.8875 c 1.17839,-0.08503 2.33816,-0.27526 3.4324,-0.57001 z"
             fill="#e74c3c"
             id="path141" /></g></g><g
         id="g151"><g
           id="g149"><path
             d="m 24.45747,30.77137 c 0.83872,0.04528 1.68557,0.03832 2.52128,-0.02229 l 0.62972,2.8875 c -1.24331,0.09061 -2.50157,0.09755 -3.74823,0.02231 z"
             fill="#5b5e71"
             id="path147" /></g></g></g><g
       enable-background="new"
       id="g191"><g
         id="g159"><g
           id="g157"><path
             d="m 21.02187,17.95596 c -0.74841,0.18047 -1.4713,0.41041 -2.153,0.68775 l -3.03969,-2.32449 c 1.01528,-0.42367 2.09478,-0.77137 3.21682,-1.04312 z"
             fill="#5b5e71"
             id="path155" /></g></g><g
         id="g165"><g
           id="g163"><path
             d="m 15.82918,16.31923 3.03971,2.32449 c -0.54009,0.22019 -1.05836,0.47104 -1.54156,0.75185 -0.3657,0.21252 -0.70129,0.43549 -1.00672,0.66753 l -4.02052,-1.75173 c 0.44438,-0.33934 0.93216,-0.66475 1.46452,-0.97412 0.64987,-0.37767 1.33965,-0.71701 2.06457,-1.01802 z"
             fill="#e74c3c"
             id="path161" /></g></g><g
         id="g171"><g
           id="g169"><path
             d="m 16.32059,20.06309 c -0.51146,0.38952 -0.93977,0.80481 -1.28504,1.23611 l -4.63411,-1.13644 c 0.50037,-0.64734 1.13446,-1.26888 1.89864,-1.85142 z"
             fill="#5b5e71"
             id="path167" /></g></g><g
         id="g177"><g
           id="g175"><path
             d="m 15.03557,21.29921 c -0.50767,0.63618 -0.83228,1.30859 -0.97522,1.99143 L 9.07454,22.93461 c 0.19794,-0.94973 0.63777,-1.88483 1.3269,-2.77184 z"
             fill="#e74c3c"
             id="path173" /></g></g><g
         id="g183"><g
           id="g181"><path
             d="m 14.06035,23.29063 c -0.10071,0.48496 -0.11116,0.97482 -0.03025,1.46049 L 9.04707,25.1065 C 8.91306,24.38323 8.92218,23.65508 9.07453,22.93459 Z"
             fill="#5b5e71"
             id="path179" /></g></g><g
         id="g189"><g
           id="g187"><path
             d="m 14.03009,24.75113 c 0.11696,0.69122 0.41794,1.37339 0.90395,2.02069 l -4.61774,1.1358 C 9.64241,27.00877 9.21964,26.06321 9.04705,25.10651 Z"
             fill="#e74c3c"
             id="path185" /></g></g></g><g
       id="g197"><g
         id="g195"><path
           d="m 14.93402,26.7718 c 0.33454,0.44457 0.75681,0.8731 1.26551,1.27655 l -4.00077,1.75174 c -0.76122,-0.59645 -1.39035,-1.23193 -1.88247,-1.89248 z"
           fill="#5b5e71"
           id="path193" /></g></g><g
       id="g203"><g
         id="g201"><path
           d="m 24.45748,30.77138 -0.59725,2.88752 c -1.65341,-0.09754 -3.28717,-0.33932 -4.83875,-0.72534 l 1.94454,-2.67917 c 1.1203,0.28009 2.29897,0.4522 3.49146,0.51699 z"
           fill="#e74c3c"
           id="path199" /></g></g><g
       id="g209"><g
         id="g207"><path
           d="m 18.75807,29.52553 c 0.69817,0.29334 1.44057,0.53723 2.20793,0.72885 l -1.94454,2.67918 c -1.1432,-0.2836 -2.24111,-0.64523 -3.27448,-1.08489 z"
           fill="#5b5e71"
           id="path205" /></g></g><g
       id="g215"><g
         id="g213"><path
           d="m 32.31598,18.73699 c -0.66324,-0.2829 -1.36586,-0.5191 -2.09472,-0.70931 l 1.94571,-2.6785 c 1.10472,0.28083 2.1629,0.63616 3.16137,1.064 z"
           fill="#5b5e71"
           id="path211" /></g></g><g
       id="g221"><g
         id="g219"><path
           d="m 40.63079,20.23438 -4.62017,1.13578 C 35.68105,20.9479 35.27098,20.54308 34.78045,20.15985 l 4.00196,-1.75246 c 0.74065,0.57624 1.35881,1.18874 1.84838,1.82699 z"
           fill="#5b5e71"
           id="path217" /></g></g><g
       id="g227"><g
         id="g225"><path
           d="m 37.18007,17.33784 c 0.58772,0.33932 1.12264,0.69677 1.60232,1.06957 l -4.00196,1.75246 C 34.43968,19.8923 34.0593,19.63657 33.64054,19.3948 33.22296,19.15371 32.78023,18.93422 32.31597,18.73702 l 3.01234,-2.32381 c 0.64637,0.27732 1.26522,0.58599 1.85176,0.92463 z"
           fill="#e74c3c"
           id="path223" /></g></g><g
       id="g233"><g
         id="g231"><path
           d="m 32.16698,15.3492 -1.94572,2.6785 c -1.0746,-0.28011 -2.20762,-0.46058 -3.35929,-0.54071 l 0.59725,-2.88752 c 1.61019,0.11287 3.19831,0.36164 4.70776,0.74973 z"
           fill="#e74c3c"
           id="path229" /></g></g><g
       id="g239"><g
         id="g237"><path
           d="m 23.79374,14.5793 0.63094,2.8868 c -1.1629,0.06063 -2.31201,0.22368 -3.40279,0.48987 l -1.9759,-2.67987 c 1.52325,-0.3721 3.12547,-0.60413 4.74775,-0.6968 z"
           fill="#e74c3c"
           id="path235" /></g></g><g
       id="g245"><g
         id="g243"><path
           d="M 26.86196,17.48697 C 26.05207,17.43056 25.23524,17.4229 24.42467,17.46609 l -0.63094,-2.88682 c 1.21817,-0.07316 2.44884,-0.06549 3.66547,0.02018 z"
           fill="#5b5e71"
           id="path241" /></g></g><g
       id="g251"><g
         id="g249"><path
           d="m 37.0015,24.72591 c 0.07194,-0.46961 0.05606,-0.94274 -0.04281,-1.41098 l 4.9806,-0.35539 c 0.15431,0.70445 0.17036,1.41796 0.05041,2.12241 z"
           fill="#5b5e71"
           id="path247" /></g></g><g
       id="g257"><g
         id="g255"><path
           d="m 18.75808,29.52554 -3.01112,2.32314 C 15.08134,31.56578 14.4444,31.24944 13.84097,30.90105 13.23754,30.55266 12.6893,30.18474 12.19876,29.80012 l 4.00077,-1.75176 c 0.35284,0.27872 0.74529,0.54419 1.18097,0.79573 0.43569,0.25155 0.89647,0.47868 1.37758,0.68145 z"
           fill="#e74c3c"
           id="path253" /></g></g><g
       id="g263"><g
         id="g261"><path
           d="m 40.63079,20.2344 c 0.67255,0.87308 1.10958,1.79215 1.30851,2.72516 l -4.98062,0.35538 C 36.81539,22.64881 36.5001,21.99172 36.01061,21.37018 Z"
           fill="#e74c3c"
           id="path259" /></g></g></g><g
     id="g269"><path
       d="m 29.9045,20.62661 v 3.34865 c 0,0.65078 -0.42569,1.29934 -1.27928,1.79523 -1.71499,0.99624 -4.50423,0.99624 -6.22929,0 -0.86695,-0.50035 -1.30045,-1.15671 -1.30045,-1.81195 v -3.33193 c 0,-2.43154 1.97244,-4.40395 4.40395,-4.40395 h 0.0011 c 2.43153,0 4.40395,1.97242 4.40395,4.40395 z"
       fill="#ecf0f1"
       id="path267" /></g><g
     id="g295"><g
       enable-background="new"
       id="g293"><g
         id="g279"><g
           enable-background="new"
           id="g277"><g
             id="g275"><g
               id="g273"><path
                 d="m 26.26091,17.55186 c -0.41774,0.24196 -1.09636,0.24196 -1.516,0 -0.41964,-0.24195 -0.42342,-0.63513 -0.0057,-0.87709 0.41774,-0.24384 1.09636,-0.24384 1.516,-0.0019 0.41964,0.24195 0.42343,0.63702 0.0057,0.87897 z"
                 fill="#d4d6d6"
                 id="path271" /></g></g></g></g><g
         id="g285"><g
           id="g283"><path
             d="m 26.3336,13.95942 -0.0085,3.01143 c -3.5e-4,0.12226 -0.08065,0.24437 -0.24112,0.33763 -0.32291,0.18766 -0.84813,0.18739 -1.17267,10e-6 -0.16356,-0.09443 -0.24524,-0.21831 -0.24489,-0.342 l 0.0085,-3.01143 c -3.5e-4,0.12369 0.08134,0.24757 0.24489,0.342 0.32455,0.18738 0.84976,0.18765 1.17267,-10e-6 0.16047,-0.09325 0.24077,-0.21537 0.24112,-0.33763 z"
             fill="#e0e2e2"
             id="path281" /></g></g><g
         id="g291"><g
           id="g289"><path
             d="m 26.08912,13.61753 c 0.32455,0.18738 0.32626,0.49187 0.0033,0.67953 -0.32291,0.18766 -0.84813,0.18739 -1.17267,10e-6 -0.32502,-0.18765 -0.32674,-0.49161 -0.0038,-0.67926 0.32291,-0.18766 0.84813,-0.18793 1.17315,-2.8e-4 z"
             fill="#ecf0f1"
             id="path287" /></g></g></g></g><g
     id="g301"><g
       id="g299"><path
         d="m 25.23114,13.61165 c -0.26065,0 -0.5141,-0.13476 -0.6544,-0.3763 -0.20989,-0.36107 -0.08731,-0.82386 0.27376,-1.03365 l 6.86515,-3.9896 c 0.36089,-0.20979 0.82386,-0.08722 1.03356,0.27385 0.20988,0.36107 0.08731,0.82386 -0.27376,1.03365 l -6.86515,3.9896 c -0.11943,0.06941 -0.25031,0.10245 -0.37916,0.10245 z"
         fill="#e0e2e2"
         id="path297" /></g></g><g
     id="g307"><g
       id="g305"><path
         d="m 25.07737,13.61165 c -0.12903,0 -0.25954,-0.03295 -0.37916,-0.10245 L 18.10552,9.67799 C 17.74445,9.4682 17.62188,9.00541 17.83176,8.64434 18.04146,8.28327 18.50406,8.1606 18.86532,8.37049 l 6.59269,3.83121 c 0.36107,0.20979 0.48364,0.67258 0.27376,1.03365 -0.1403,0.24155 -0.39375,0.3763 -0.6544,0.3763 z"
         fill="#e0e2e2"
         id="path303" /></g></g><g
     id="g311"><path
       d="m 27.17277,12.12579 v 2.61072 c 0,0.24716 -0.16167,0.49347 -0.48586,0.68181 -0.65133,0.37836 -1.71066,0.37836 -2.36581,0 -0.32926,-0.19003 -0.4939,-0.4393 -0.4939,-0.68816 v -2.60437 c 0,-0.92347 0.74911,-1.67257 1.67257,-1.67257 h 4.2e-4 c 0.92348,0 1.67258,0.7491 1.67258,1.67257 z"
       fill="#ecf0f1"
       id="path309" /></g><g
     id="g317"><g
       id="g315"><path
         d="m 17.35698,18.18762 c -0.26065,0 -0.5141,-0.13476 -0.6544,-0.3763 -0.20989,-0.36107 -0.08731,-0.82385 0.27376,-1.03365 l 6.80479,-3.95452 c 0.36089,-0.20989 0.82385,-0.08722 1.03356,0.27385 0.20989,0.36107 0.08731,0.82386 -0.27376,1.03365 l -6.80479,3.95452 c -0.11943,0.06941 -0.25031,0.10245 -0.37916,0.10245 z"
         fill="#e0e2e2"
         id="path313" /></g></g><g
     id="g323"><g
       id="g321"><path
         d="m 32.95153,18.18762 c -0.12903,0 -0.25954,-0.03295 -0.37916,-0.10245 l -6.80479,-3.95452 c -0.36107,-0.20979 -0.48364,-0.67258 -0.27376,-1.03365 0.2097,-0.36107 0.67249,-0.48374 1.03356,-0.27385 l 6.80479,3.95452 c 0.36107,0.20979 0.48365,0.67258 0.27376,1.03365 -0.1403,0.24155 -0.39375,0.3763 -0.6544,0.3763 z"
         fill="#e0e2e2"
         id="path319" /></g></g></g></svg>
