<?xml version="1.0" encoding="UTF-8" standalone="no"?>
<svg
   xmlns:dc="http://purl.org/dc/elements/1.1/"
   xmlns:cc="http://creativecommons.org/ns#"
   xmlns:rdf="http://www.w3.org/1999/02/22-rdf-syntax-ns#"
   xmlns:svg="http://www.w3.org/2000/svg"
   xmlns="http://www.w3.org/2000/svg"
   xmlns:sodipodi="http://sodipodi.sourceforge.net/DTD/sodipodi-0.dtd"
   xmlns:inkscape="http://www.inkscape.org/namespaces/inkscape"
   inkscape:version="1.0 (4035a4f, 2020-05-01)"
   sodipodi:docname="7j-blackjack-india.svg"
   xml:space="preserve"
   style="enable-background:new 0 0 512.001 512.001;"
   viewBox="0 0 512.001 512.001"
   y="0px"
   x="0px"
   id="Capa_1"
   version="1.1"><metadata
   id="metadata2241"><rdf:RDF><cc:Work
       rdf:about=""><dc:format>image/svg+xml</dc:format><dc:type
         rdf:resource="http://purl.org/dc/dcmitype/StillImage" /><dc:title></dc:title></cc:Work></rdf:RDF></metadata><defs
   id="defs2239" /><sodipodi:namedview
   inkscape:current-layer="Capa_1"
   inkscape:window-maximized="0"
   inkscape:window-y="25"
   inkscape:window-x="-1"
   inkscape:cy="242.62733"
   inkscape:cx="250.26914"
   inkscape:zoom="1.5703095"
   showgrid="false"
   id="namedview2237"
   inkscape:window-height="942"
   inkscape:window-width="1680"
   inkscape:pageshadow="2"
   inkscape:pageopacity="0"
   guidetolerance="10"
   gridtolerance="10"
   objecttolerance="10"
   borderopacity="1"
   bordercolor="#666666"
   pagecolor="#ffffff"
   inkscape:document-rotation="0" />
<circle
   id="circle2168"
   r="256"
   cy="256"
   cx="256"
   style="fill:#2fad4f;fill-opacity:1" />































<path
   style="stroke-width:0.824219"
   d="M 455.68401,451.83617 H 216.26165 c -6.57149,0 -11.89842,-5.32694 -11.89842,-11.89843 V 66.461145 c 0,-6.571497 5.32693,-11.898422 11.89842,-11.898422 h 239.42236 c 6.5715,0 11.89842,5.326925 11.89842,11.898422 V 439.93774 c 0,6.57149 -5.32692,11.89843 -11.89842,11.89843 z"
   fill="#f1f1f1"
   id="path2297" /><path
   style="stroke-width:0.824219"
   d="m 455.69473,54.562723 h -25.47248 c 6.5649,0 11.88771,5.331871 11.88771,11.909961 V 439.9262 c 0,6.57727 -5.32198,11.90997 -11.88771,11.90997 h 25.47248 c 6.5649,0 11.8877,-5.33188 11.8877,-11.90997 V 66.472684 c 0,-6.57809 -5.32197,-11.909961 -11.8877,-11.909961 z"
   fill="#dfdfdf"
   id="path2299" /><path
   style="stroke-width:0.824219"
   d="m 332.08004,196.98031 -45.00893,59.43523 c -0.46074,0.60828 -0.46074,1.45063 0,2.05807 l 45.00893,59.43525 c 0.67669,0.89345 2.0144,0.89345 2.69108,0 l 45.00894,-59.43525 c 0.46074,-0.60826 0.46074,-1.45062 0,-2.05807 l -45.00894,-59.43523 c -0.67668,-0.89346 -2.01439,-0.89346 -2.69108,0 z"
   fill="#f44336"
   id="path2301" /><path
   style="stroke-width:0.824219"
   d="m 257.69925,83.306528 c -0.0213,-0.05687 -0.0445,-0.113742 -0.0676,-0.170613 -1.12588,-2.734758 -3.76338,-4.500235 -6.72067,-4.500235 h -0.0103 c -2.96059,0.0033 -5.59809,1.776192 -6.71738,4.517543 -0.019,0.04615 -0.0371,0.09149 -0.0544,0.137645 l -17.9907,47.237622 c -1.2149,3.19055 0.38573,6.76189 3.57628,7.97761 3.18973,1.2149 6.76189,-0.38655 7.97679,-3.57628 l 2.96472,-7.7831 h 20.3722 l 2.93093,7.76579 c 0.93466,2.47513 3.28616,4.00076 5.7852,4.00076 0.72448,0 1.46298,-0.12858 2.18088,-0.39974 3.19384,-1.20502 4.80684,-4.77141 3.60101,-7.96608 z m -12.33361,31.476082 5.52474,-14.50542 5.47364,14.50542 z"
   fill="#356c8e"
   id="path2303" /><path
   style="stroke-width:0.824219"
   d="m 445.81317,420.24221 -17.82703,-47.23927 c -0.0213,-0.0568 -0.0445,-0.11375 -0.0676,-0.17061 -1.12589,-2.73477 -3.76339,-4.50024 -6.72069,-4.50024 h -0.008 c -2.96061,0.002 -5.59811,1.77537 -6.71822,4.5159 -0.019,0.047 -0.0379,0.0931 -0.0552,0.14094 l -17.99105,47.23762 c -1.2149,3.18973 0.38573,6.76107 3.57629,7.97679 3.19054,1.21572 6.76188,-0.38573 7.97678,-3.57711 l 2.9639,-7.78227 h 20.37221 l 2.93092,7.76579 c 0.93466,2.47512 3.28616,4.00075 5.78519,4.00075 0.72449,0 1.46299,-0.12857 2.18088,-0.39974 3.19551,-1.20748 4.80767,-4.77387 3.60184,-7.96855 z m -30.16146,-15.76318 5.52473,-14.50543 5.47364,14.50543 z"
   fill="#356c8e"
   id="path2305" /><path
   style="stroke-width:0.824219"
   d="M 296.90321,451.83617 H 57.480855 c -6.571497,0 -11.898422,-5.32694 -11.898422,-11.89843 V 66.461145 c 0,-6.571497 5.326925,-11.898422 11.898422,-11.898422 H 296.90321 c 6.5715,0 11.89842,5.326925 11.89842,11.898422 V 439.93774 c 0,6.57149 -5.32692,11.89843 -11.89842,11.89843 z"
   fill="#f1f1f1"
   id="path2307" /><path
   style="stroke-width:0.824219"
   d="m 296.91475,54.562723 h -25.47248 c 6.56491,0 11.88771,5.331871 11.88771,11.909961 V 439.9262 c 0,6.57727 -5.32198,11.90997 -11.88771,11.90997 h 25.47248 c 6.56491,0 11.88771,-5.33188 11.88771,-11.90997 V 66.472684 c -8.3e-4,-6.57809 -5.3228,-11.909961 -11.88771,-11.909961 z"
   fill="#dfdfdf"
   id="path2309" /><path
   style="stroke-width:0.824219"
   d="m 241.79182,108.53421 -9.24278,37.24727 c -0.18792,0.75746 -0.86791,1.28908 -1.64844,1.28908 h -86.58912 c -0.78053,0 -1.46052,-0.53162 -1.64844,-1.28908 l -9.24278,-37.24727 c -0.33135,-1.33441 0.97834,-2.48914 2.26082,-1.99296 l 25.73458,9.94997 c 0.7179,0.27776 1.53305,0.0371 1.98637,-0.5852 l 22.82756,-31.400254 c 0.67834,-0.933015 2.0688,-0.933015 2.74713,0 l 22.83415,31.401084 c 0.4525,0.62229 1.26765,0.86296 1.98554,0.5852 l 25.73541,-9.94997 c 1.28166,-0.49701 2.59134,0.65772 2.26,1.99213 z"
   fill="#fece3f"
   id="path2311" /><path
   style="stroke-width:0.824219"
   d="m 239.531,106.54125 -25.12879,9.71507 -7.32647,29.52516 c -0.18793,0.75746 -0.86791,1.28908 -1.64845,1.28908 h 25.47249 c 0.78053,0 1.46052,-0.53162 1.64843,-1.28908 l 9.24279,-37.24727 c 0.33216,-1.33441 -0.97669,-2.48914 -2.26,-1.99296 z"
   fill="#fec020"
   id="path2313" /><path
   style="stroke-width:0.824219"
   d="m 187.60604,194.6387 c -20.78515,0 -37.63383,-16.8495 -37.63383,-37.63383 v -9.93431 h 75.26848 v 9.93431 c 0,20.78433 -16.8495,37.63383 -37.63465,37.63383 z"
   fill="#fdba91"
   id="path2315" /><path
   style="stroke-width:0.824219"
   d="M 242.57896,255.66715 H 108.20163 V 225.2065 c 0,-16.88165 13.68532,-30.5678 30.5678,-30.5678 h 93.62053 c 5.62695,0 10.189,4.56205 10.189,10.18899 z"
   fill="#3692f2"
   id="path2317" /><path
   style="stroke-width:0.824219"
   d="m 232.38996,194.6387 h -25.47247 c 5.62694,0 10.18898,4.56205 10.18898,10.18899 v 50.83864 h 25.47249 v -50.83864 c 0,-5.62694 -4.56205,-10.18899 -10.189,-10.18899 z"
   fill="#1e80f0"
   id="path2319" /><path
   style="stroke-width:0.824219"
   d="m 108.98876,402.80009 9.24278,-37.24726 c 0.18793,-0.75746 0.86791,-1.28908 1.64845,-1.28908 h 86.58912 c 0.78054,0 1.46051,0.53162 1.64843,1.28908 l 9.2428,37.24726 c 0.33133,1.33441 -0.97836,2.48915 -2.26084,1.99296 l -25.73458,-9.94996 c -0.71789,-0.27776 -1.53305,-0.0371 -1.98636,0.58519 l -22.82757,31.40026 c -0.67833,0.93302 -2.06878,0.93302 -2.74712,0 l -22.83415,-31.40108 c -0.4525,-0.62229 -1.26765,-0.86296 -1.98555,-0.5852 l -25.73541,9.94997 c -1.28166,0.49618 -2.59134,-0.65773 -2.26,-1.99214 z"
   fill="#fece3f"
   id="path2321" /><path
   style="stroke-width:0.824219"
   d="m 217.36034,402.80009 -9.2428,-37.24726 c -0.18792,-0.75746 -0.86789,-1.28908 -1.64843,-1.28908 h -25.47248 c 0.78053,0 1.46052,0.53162 1.64844,1.28908 l 7.32647,29.52515 25.12878,9.71507 c 1.28166,0.49536 2.59135,-0.65855 2.26002,-1.99296 z"
   fill="#fec020"
   id="path2323" /><path
   style="stroke-width:0.824219"
   d="m 163.17454,316.69478 c 20.78515,0 37.63383,16.84951 37.63383,37.63383 v 9.93431 h -75.26765 v -9.93431 c 0,-20.78432 16.8495,-37.63383 37.63382,-37.63383 z"
   fill="#fdba91"
   id="path2325" /><path
   style="stroke-width:0.824219"
   d="m 108.20163,255.66715 h 134.37733 v 30.46066 c 0,16.88165 -13.68533,30.5678 -30.5678,30.5678 h -93.62054 c -5.62694,0 -10.18899,-4.56205 -10.18899,-10.18899 z"
   fill="#f44336"
   id="path2327" /><path
   style="stroke-width:0.824219"
   d="m 217.10647,255.66715 v 30.46066 c 0,16.88165 -13.68533,30.5678 -30.56779,30.5678 h 25.47248 c 16.88165,0 30.5678,-13.68534 30.5678,-30.5678 v -30.46066 z"
   fill="#e53935"
   id="path2329" /><g
   transform="matrix(0.82421876,0,0,0.82421876,45.582433,42.199441)"
   fill="#356c8e"
   id="g2337"><path
     d="M 66.567,87.363 44.865,65.925 64.65,47.302 C 67.667,44.463 67.81,39.717 64.971,36.7 62.132,33.684 57.384,33.54 54.369,36.38 L 39.951,49.951 V 41.19 c 0,-4.143 -3.358,-7.5 -7.5,-7.5 -4.142,0 -7.5,3.357 -7.5,7.5 v 51.509 c 0,4.143 3.358,7.5 7.5,7.5 4.142,0 7.5,-3.357 7.5,-7.5 V 82.156 l 16.074,15.879 c 2.939,2.901 7.687,2.891 10.606,-0.065 2.911,-2.947 2.883,-7.696 -0.064,-10.607 z"
     id="path2331" /><path
     d="m 293.889,461.287 -21.702,-21.438 19.786,-18.622 c 3.017,-2.84 3.16,-7.586 0.321,-10.603 -2.84,-3.016 -7.586,-3.159 -10.602,-0.321 l -14.419,13.572 v -8.76 c 0,-4.143 -3.358,-7.5 -7.5,-7.5 -4.142,0 -7.5,3.357 -7.5,7.5 v 51.509 c 0,4.143 3.358,7.5 7.5,7.5 4.142,0 7.5,-3.357 7.5,-7.5 V 456.08 l 16.074,15.879 c 2.939,2.901 7.687,2.891 10.606,-0.065 2.911,-2.947 2.882,-7.696 -0.064,-10.607 z"
     id="path2333" /><path
     d="m 156.63,220.244 -28.845,38.09 c -0.295,0.39 -0.295,0.929 0,1.319 l 28.845,38.09 c 0.434,0.573 1.291,0.573 1.725,0 l 28.845,-38.09 c 0.295,-0.39 0.295,-0.929 0,-1.319 l -28.845,-38.09 c -0.434,-0.573 -1.292,-0.573 -1.725,0 z"
     id="path2335" /></g></svg>
