<?xml version="1.0" encoding="UTF-8" standalone="no"?>
<svg
   xmlns:dc="http://purl.org/dc/elements/1.1/"
   xmlns:cc="http://creativecommons.org/ns#"
   xmlns:rdf="http://www.w3.org/1999/02/22-rdf-syntax-ns#"
   xmlns:svg="http://www.w3.org/2000/svg"
   xmlns="http://www.w3.org/2000/svg"
   xmlns:sodipodi="http://sodipodi.sourceforge.net/DTD/sodipodi-0.dtd"
   xmlns:inkscape="http://www.inkscape.org/namespaces/inkscape"
   inkscape:version="1.0 (4035a4f, 2020-05-01)"
   sodipodi:docname="7j-slots-india.svg"
   xml:space="preserve"
   style="enable-background:new 0 0 512.001 512.001;"
   viewBox="0 0 512.001 512.001"
   y="0px"
   x="0px"
   id="Capa_1"
   version="1.1"><metadata
   id="metadata2241"><rdf:RDF><cc:Work
       rdf:about=""><dc:format>image/svg+xml</dc:format><dc:type
         rdf:resource="http://purl.org/dc/dcmitype/StillImage" /><dc:title></dc:title></cc:Work></rdf:RDF></metadata><defs
   id="defs2239" /><sodipodi:namedview
   inkscape:current-layer="Capa_1"
   inkscape:window-maximized="0"
   inkscape:window-y="25"
   inkscape:window-x="-1"
   inkscape:cy="242.63101"
   inkscape:cx="221.61236"
   inkscape:zoom="1.5703095"
   showgrid="false"
   id="namedview2237"
   inkscape:window-height="942"
   inkscape:window-width="1680"
   inkscape:pageshadow="2"
   inkscape:pageopacity="0"
   guidetolerance="10"
   gridtolerance="10"
   objecttolerance="10"
   borderopacity="1"
   bordercolor="#666666"
   pagecolor="#ffffff"
   inkscape:document-rotation="0" />
<circle
   id="circle2168"
   r="256"
   cy="256"
   cx="256"
   style="fill:#2fad4f;fill-opacity:1" />































<path
   id="path4362"
   d="m 445.6185,353.32198 h -14.165 v -15.453 h 14.165 c 21.302,0 38.632,-17.33 38.632,-38.632 v -90.141 h 15.453 v 90.141 c 0,29.823 -24.262,54.085 -54.085,54.085 z"
   style="fill:#8b9ba9" /><circle
   id="circle4364"
   r="15.453"
   cy="201.36998"
   cx="491.97748"
   style="fill:#c5324f" /><path
   id="path4370"
   d="m 182.9225,40.661981 72.113,37.087 72.113,-37.087 v -10.302 c 0,-11.379 -9.224,-20.604 -20.604,-20.604 h -103.018 c -11.379,0 -20.604,9.224 -20.604,20.604 z"
   style="fill:#8b9ba9" /><path
   id="path4372"
   d="M 69.602504,467.67198 H 440.4675 V 71.566981 c 0,-17.069 -13.836,-30.905 -30.905,-30.905 h -309.054 c -17.069,0 -30.904996,13.836 -30.904996,30.905 V 467.67198 Z"
   style="fill:#ffb545" /><path
   id="path4374"
   d="m 69.602504,436.76698 v 30.905 H 440.4675 V 71.566981 c 0,-17.069 -13.836,-30.905 -30.905,-30.905 V 436.76698 Z"
   style="fill:#ff983b" /><path
   id="path4376"
   d="M 255.0355,88.049981 H 64.451504 c -8.534,0 -15.453,6.919 -15.453,15.452999 v 195.734 c 0,8.534 6.919,15.453 15.453,15.453 H 255.0345 445.6175 c 8.534,0 15.453,-6.919 15.453,-15.453 v -195.734 c 0,-8.533999 -6.919,-15.452999 -15.453,-15.452999 z"
   style="fill:#ff7e40" /><path
   id="path4378"
   d="m 445.6185,88.049981 h -15.453 V 283.78398 H 48.999504 v 15.453 c 0,8.534 6.919,15.453 15.453,15.453 H 255.0355 445.6185 c 8.534,0 15.453,-6.919 15.453,-15.453 v -195.734 c 0,-8.533999 -6.919,-15.452999 -15.453,-15.452999 z"
   style="fill:#ff6344" /><g
   transform="translate(22.214506,-44.328019)"
   id="g4384"><rect
     id="rect4380"
     height="118.471"
     width="101.298"
     style="fill:#fff9eb"
     y="186.463"
     x="80.869003" /><rect
     id="rect4382"
     height="118.471"
     width="101.298"
     style="fill:#fff9eb"
     y="186.463"
     x="283.47501" /></g><g
   transform="translate(22.214506,-44.328019)"
   id="g4390"><rect
     id="rect4386"
     height="118.471"
     width="101.298"
     style="fill:#e9e3d5"
     y="186.463"
     x="182.16701" /><polygon
     id="polygon4388"
     points="384.773,304.934 384.773,186.463 353.867,186.463 353.867,274.028 283.472,274.028 283.472,304.934 "
     style="fill:#e9e3d5" /></g><rect
   id="rect4392"
   height="30.905001"
   width="101.298"
   style="fill:#d3cdbf"
   y="229.7"
   x="204.38152" /><rect
   id="rect4394"
   height="30.905001"
   width="101.298"
   style="fill:#e9e3d5"
   y="229.7"
   x="103.08351" /><g
   transform="translate(22.214506,-44.328019)"
   id="g4402"><path
     id="path4396"
     d="m 147.545,209.127 h -32.05 c -4.267,0 -7.726,3.459 -7.726,7.726 v 6.197 c 0,4.267 3.459,7.726 7.726,7.726 3.744,0 6.865,-2.662 7.575,-6.197 h 9.057 c -6.506,10.265 -11.427,23.1 -12.374,42.892 -2.72,1.196 -4.621,3.911 -4.621,7.072 0,4.267 3.459,7.726 7.726,7.726 h 9.272 c 4.267,0 7.726,-3.459 7.726,-7.726 0,-3.165 -1.905,-5.88 -4.628,-7.075 1.445,-25.577 10.688,-36.636 18.24,-45.655 1.926,-2.301 2.347,-5.509 1.077,-8.229 -1.27,-2.719 -3.999,-4.457 -7,-4.457 z"
     style="fill:#c5324f" /><path
     id="path4398"
     d="m 248.846,209.127 h -32.05 c -4.267,0 -7.726,3.459 -7.726,7.726 v 6.197 c 0,4.267 3.459,7.726 7.726,7.726 3.744,0 6.865,-2.662 7.575,-6.197 h 9.058 c -6.506,10.265 -11.427,23.1 -12.374,42.892 -2.72,1.196 -4.621,3.911 -4.621,7.072 0,4.267 3.459,7.726 7.726,7.726 h 9.272 c 4.267,0 7.726,-3.459 7.726,-7.726 0,-3.165 -1.905,-5.88 -4.628,-7.075 1.445,-25.577 10.688,-36.636 18.24,-45.655 1.926,-2.301 2.347,-5.509 1.077,-8.229 -1.27,-2.719 -4,-4.457 -7.001,-4.457 z"
     style="fill:#c5324f" /><path
     id="path4400"
     d="m 357.148,213.584 c -1.27,-2.72 -3.999,-4.458 -7.001,-4.458 h -32.05 c -4.267,0 -7.726,3.459 -7.726,7.726 v 6.197 c 0,4.267 3.459,7.726 7.726,7.726 3.744,0 6.865,-2.662 7.575,-6.197 h 9.057 c -6.506,10.265 -11.427,23.1 -12.374,42.892 -2.72,1.196 -4.621,3.911 -4.621,7.072 0,4.267 3.459,7.726 7.726,7.726 h 9.272 c 4.267,0 7.726,-3.459 7.726,-7.726 0,-3.165 -1.905,-5.881 -4.629,-7.075 1.445,-25.577 10.688,-36.635 18.24,-45.655 1.928,-2.3 2.348,-5.508 1.079,-8.228 z"
     style="fill:#c5324f" /></g><path
   id="path4404"
   d="m 182.9225,376.50098 v 0 c 0,17.069 13.836,30.905 30.905,30.905 h 82.414 c 17.069,0 30.905,-13.836 30.905,-30.905 v 0 c 0,-17.069 -13.836,-30.905 -30.905,-30.905 h -82.414 c -17.068,0 -30.905,13.836 -30.905,30.905 z"
   style="fill:#8b9ba9" /><path
   id="path4406"
   d="m 295.5555,384.22698 h -82.414 c -4.267,0 -7.726,-3.459 -7.726,-7.726 0,-4.267 3.459,-7.726 7.726,-7.726 h 82.414 c 4.267,0 7.726,3.459 7.726,7.726 0,4.267 -3.458,7.726 -7.726,7.726 z"
   style="fill:#4d5967" /><g
   transform="translate(22.214506,-44.328019)"
   id="g4408" /><g
   transform="translate(22.214506,-44.328019)"
   id="g4410" /><g
   transform="translate(22.214506,-44.328019)"
   id="g4412" /><g
   transform="translate(22.214506,-44.328019)"
   id="g4414" /><g
   transform="translate(22.214506,-44.328019)"
   id="g4416" /><g
   transform="translate(22.214506,-44.328019)"
   id="g4418" /><g
   transform="translate(22.214506,-44.328019)"
   id="g4420" /><g
   transform="translate(22.214506,-44.328019)"
   id="g4422" /><g
   transform="translate(22.214506,-44.328019)"
   id="g4424" /><g
   transform="translate(22.214506,-44.328019)"
   id="g4426" /><g
   transform="translate(22.214506,-44.328019)"
   id="g4428" /><g
   transform="translate(22.214506,-44.328019)"
   id="g4430" /><g
   transform="translate(22.214506,-44.328019)"
   id="g4432" /><g
   transform="translate(22.214506,-44.328019)"
   id="g4434" /><g
   transform="translate(22.214506,-44.328019)"
   id="g4436" /></svg>
