<?xml version="1.0" encoding="UTF-8" standalone="no"?>
<svg
   xmlns:dc="http://purl.org/dc/elements/1.1/"
   xmlns:cc="http://creativecommons.org/ns#"
   xmlns:rdf="http://www.w3.org/1999/02/22-rdf-syntax-ns#"
   xmlns:svg="http://www.w3.org/2000/svg"
   xmlns="http://www.w3.org/2000/svg"
   xmlns:sodipodi="http://sodipodi.sourceforge.net/DTD/sodipodi-0.dtd"
   xmlns:inkscape="http://www.inkscape.org/namespaces/inkscape"
   inkscape:version="1.0 (4035a4f, 2020-05-01)"
   sodipodi:docname="7j-roulette-india.svg"
   xml:space="preserve"
   style="enable-background:new 0 0 512.001 512.001;"
   viewBox="0 0 512.001 512.001"
   y="0px"
   x="0px"
   id="Capa_1"
   version="1.1"><metadata
   id="metadata2241"><rdf:RDF><cc:Work
       rdf:about=""><dc:format>image/svg+xml</dc:format><dc:type
         rdf:resource="http://purl.org/dc/dcmitype/StillImage" /><dc:title></dc:title></cc:Work></rdf:RDF></metadata><defs
   id="defs2239" /><sodipodi:namedview
   inkscape:current-layer="Capa_1"
   inkscape:window-maximized="1"
   inkscape:window-y="25"
   inkscape:window-x="0"
   inkscape:cy="242.62733"
   inkscape:cx="250.26914"
   inkscape:zoom="1.5703095"
   showgrid="false"
   id="namedview2237"
   inkscape:window-height="942"
   inkscape:window-width="1680"
   inkscape:pageshadow="2"
   inkscape:pageopacity="0"
   guidetolerance="10"
   gridtolerance="10"
   objecttolerance="10"
   borderopacity="1"
   bordercolor="#666666"
   pagecolor="#ffffff"
   inkscape:document-rotation="0" />
<circle
   id="circle2168"
   r="256"
   cy="256"
   cx="256"
   style="fill:#2fad4f;fill-opacity:1" />































<path
   style="fill:#ffce54;stroke-width:0.861324"
   d="M 460.63385,168.67229 C 449.53053,142.41655 433.63826,118.83868 413.38422,98.58464 393.1431,78.343533 369.55231,62.450387 343.30949,51.334142 316.12525,39.841498 287.24421,34 257.476,34 227.71381,34 198.83449,39.840637 171.64939,51.334142 145.39366,62.450387 121.80889,78.343533 101.56089,98.58464 81.32064,118.83868 65.420608,142.41655 54.317276,168.67229 42.818605,195.85652 36.984,224.73757 36.984,254.492 c 0,29.76734 5.833747,58.6484 17.334145,85.83264 11.102463,26.25659 27.003355,49.83362 47.243615,70.0885 20.24713,20.24112 43.8319,36.14716 70.08849,47.24964 27.18511,11.4935 56.06443,17.32035 85.82662,17.32035 29.7682,0 58.64925,-5.82771 85.83262,-17.32035 26.24369,-11.10332 49.83361,-27.00852 70.07473,-47.24964 20.25488,-20.25488 36.14718,-43.83191 47.24963,-70.0885 11.49351,-27.18424 17.33415,-56.0653 17.33415,-85.83264 0,-29.75443 -5.84064,-58.63548 -17.33415,-85.81971 z"
   id="path1516" /><path
   style="fill:#ed5564;stroke-width:0.861324"
   d="M 387.39334,124.56518 C 352.70009,89.85728 306.55293,70.747088 257.47299,70.747088 c -49.07995,0 -95.22021,19.110192 -129.92811,53.817232 -34.70015,34.7079 -53.817243,80.85419 -53.817243,129.92121 0,49.07995 19.117093,95.22624 53.817243,129.93328 34.70704,34.70876 80.84729,53.81723 129.92811,53.81723 49.08081,0 95.2271,-19.10934 129.92035,-53.81723 34.70876,-34.70704 53.83102,-80.85333 53.83102,-129.93328 0,-49.06702 -19.12226,-95.21331 -53.83102,-129.92035 z"
   id="path1518" /><g
   transform="matrix(0.86132379,0,0,0.86132379,36.987871,33.993106)"
   id="g1528"><path
     style="fill:#434a54"
     d="m 174.315,453.189 c 25.546,10.594 53.186,16.139 81.677,16.139 v -213.32 z"
     id="path1520" /><path
     style="fill:#434a54"
     d="M 337.678,58.811 C 312.116,48.218 284.49,42.671 255.992,42.671 v 213.337 z"
     id="path1522" /><path
     style="fill:#434a54"
     d="m 337.678,453.189 c 25.545,-10.578 49.014,-26.203 69.152,-46.344 L 255.992,256.008 Z"
     id="path1524" /><path
     style="fill:#434a54"
     d="m 174.315,58.811 c -25.554,10.578 -49.022,26.202 -69.17,46.343 l 150.847,150.854 z"
     id="path1526" /></g><path
   style="fill:#a0d468;stroke-width:0.861324"
   d="m 427.83017,324.86232 c 9.10935,-22.00423 13.9009,-45.81036 13.9009,-70.35722 H 257.9797 Z"
   id="path1530" /><g
   transform="matrix(0.86132379,0,0,0.86132379,37.332908,33.992675)"
   id="g1538"><path
     style="fill:#434a54"
     d="M 58.795,174.323 C 48.21,199.869 42.663,227.509 42.663,255.992 h 213.329 z"
     id="path1532" /><path
     style="fill:#434a54"
     d="M 453.189,174.323 C 442.611,148.761 426.986,125.309 406.83,105.154 L 255.992,255.992 Z"
     id="path1534" /><path
     style="fill:#434a54"
     d="m 58.795,337.678 c 10.585,25.561 26.21,49.029 46.35,69.168 L 255.992,255.992 Z"
     id="path1536" /></g><path
   style="fill:#ffce54;stroke-width:0.861324"
   d="m 339.24836,254.49891 c 0,45.14971 -36.60454,81.76802 -81.76892,81.76802 -45.16438,0 -81.7758,-36.61831 -81.7758,-81.76803 0,-45.16439 36.61229,-81.78271 81.7758,-81.78271 45.16351,0 81.76892,36.61832 81.76892,81.78272 z"
   id="path1540" /><path
   style="fill:#e6e9ed;stroke-width:0.861324"
   d="m 263.97555,260.98541 c -3.57966,3.59258 -9.40564,3.59258 -12.9991,0 -3.57966,-3.57965 -3.57966,-9.40737 0,-12.98703 3.59346,-3.59345 9.41944,-3.59345 12.9991,0 3.57967,3.57966 3.57967,9.40738 0,12.98703 z"
   id="path1542" /><g
   transform="matrix(0.86132379,0,0,0.86132379,36.984,33.999134)"
   id="g1548"><path
     style="fill:#434a54"
     d="m 255.992,319.99 c -5.89,0 -10.664,-4.766 -10.664,-10.656 V 202.666 c 0,-5.891 4.773,-10.671 10.664,-10.671 5.891,0 10.664,4.781 10.664,10.671 v 106.668 c 0,5.89 -4.773,10.656 -10.664,10.656 z"
     id="path1544" /><path
     style="fill:#434a54"
     d="M 309.334,266.664 H 202.658 c -5.891,0 -10.664,-4.766 -10.664,-10.671 0,-5.875 4.773,-10.656 10.664,-10.656 h 106.676 c 5.875,0 10.656,4.781 10.656,10.656 0,5.905 -4.781,10.671 -10.656,10.671 z"
     id="path1546" /></g><path
   style="fill:#656d78;stroke-width:0.861324"
   d="m 257.47644,226.9305 c -15.20065,0 -27.56151,12.36688 -27.56151,27.5615 0,15.20754 12.36086,27.56063 27.56151,27.56063 15.20754,0 27.56062,-12.35309 27.56062,-27.56063 0,-15.19375 -12.35308,-27.5615 -27.56062,-27.5615 z"
   id="path1550" /><g
   transform="matrix(0.86132379,0,0,0.86132379,-404,34)"
   id="g1552" /><g
   transform="matrix(0.86132379,0,0,0.86132379,-404,34)"
   id="g1554" /><g
   transform="matrix(0.86132379,0,0,0.86132379,-404,34)"
   id="g1556" /><g
   transform="matrix(0.86132379,0,0,0.86132379,-404,34)"
   id="g1558" /><g
   transform="matrix(0.86132379,0,0,0.86132379,-404,34)"
   id="g1560" /><g
   transform="matrix(0.86132379,0,0,0.86132379,-404,34)"
   id="g1562" /><g
   transform="matrix(0.86132379,0,0,0.86132379,-404,34)"
   id="g1564" /><g
   transform="matrix(0.86132379,0,0,0.86132379,-404,34)"
   id="g1566" /><g
   transform="matrix(0.86132379,0,0,0.86132379,-404,34)"
   id="g1568" /><g
   transform="matrix(0.86132379,0,0,0.86132379,-404,34)"
   id="g1570" /><g
   transform="matrix(0.86132379,0,0,0.86132379,-404,34)"
   id="g1572" /><g
   transform="matrix(0.86132379,0,0,0.86132379,-404,34)"
   id="g1574" /><g
   transform="matrix(0.86132379,0,0,0.86132379,-404,34)"
   id="g1576" /><g
   transform="matrix(0.86132379,0,0,0.86132379,-404,34)"
   id="g1578" /><g
   transform="matrix(0.86132379,0,0,0.86132379,-404,34)"
   id="g1580" /></svg>
